<svg width="396.143" height="84.912" viewBox="0 0 396.143 84.912" xmlns="http://www.w3.org/2000/svg">
	<g id="svgGroup" stroke-linecap="round" fill-rule="evenodd" font-size="9pt" stroke="#000" stroke-width="0.25mm" fill="none" style="stroke:#000;stroke-width:0.25mm;fill:none">
		<path d="M 19.751 56.519 A 6554.427 6554.427 0 0 0 37.891 66.895 A 0.732 0.732 0 0 0 37.922 66.919 Q 38.129 67.074 38.488 67.119 A 2.618 2.618 0 0 0 38.818 67.139 A 2.385 2.385 0 0 0 39.022 67.13 Q 39.665 67.075 40.381 66.675 Q 41.211 66.211 41.919 65.454 A 6.769 6.769 0 0 0 43.091 63.721 A 5.296 5.296 0 0 0 43.105 63.69 A 4.611 4.611 0 0 0 43.555 61.719 Q 43.555 60.742 42.944 59.815 A 3.97 3.97 0 0 0 42.507 59.268 Q 42.2 58.944 41.787 58.632 A 8.942 8.942 0 0 0 40.918 58.057 Q 33.74 54.102 26.611 50.171 A 60944.905 60944.905 0 0 0 12.305 42.285 Q 22.168 38.33 31.958 34.473 Q 41.748 30.615 51.66 26.66 Q 52.492 26.293 53.195 25.89 A 11.546 11.546 0 0 0 54.468 25.049 A 15.216 15.216 0 0 0 54.539 24.994 Q 55.638 24.142 56.348 23.267 A 7.779 7.779 0 0 0 56.914 22.476 A 5.849 5.849 0 0 0 57.422 21.46 Q 57.764 20.557 57.764 19.776 A 3.389 3.389 0 0 0 57.692 19.058 A 2.367 2.367 0 0 0 57.251 18.091 Q 56.738 17.432 55.811 17.432 Q 55.371 17.432 54.736 17.676 A 15575.006 15575.006 0 0 0 29.468 28.101 Q 16.895 33.301 4.199 38.477 Q 2.991 38.971 2.138 39.605 A 5.699 5.699 0 0 0 1.025 40.674 A 5.561 5.561 0 0 0 0.496 41.486 A 4.065 4.065 0 0 0 0 43.408 A 3.814 3.814 0 0 0 0.01 43.693 Q 0.083 44.666 0.665 45.347 A 3.316 3.316 0 0 0 1.611 46.094 A 24311.027 24311.027 0 0 0 19.751 56.519 Z" id="0" vector-effect="non-scaling-stroke"/>
		<path d="M 71.152 50.98 A 29.591 29.591 0 0 0 67.041 48.389 A 65.488 65.488 0 0 0 67.084 48.355 A 70.717 70.717 0 0 0 68.433 47.266 A 16.875 16.875 0 0 0 68.943 46.826 A 14.003 14.003 0 0 0 69.702 46.094 A 6.41 6.41 0 0 0 70.032 45.723 A 5.321 5.321 0 0 0 70.605 44.873 A 3.188 3.188 0 0 0 70.616 44.853 A 2.741 2.741 0 0 0 70.947 43.555 A 1.396 1.396 0 0 0 70.925 43.307 Q 70.856 42.927 70.581 42.505 A 3.514 3.514 0 0 0 70.171 41.992 A 4.476 4.476 0 0 0 69.58 41.48 A 4.001 4.001 0 0 0 69.575 41.476 Q 69.24 41.232 68.823 41.035 A 6.404 6.404 0 0 0 68.018 40.723 A 6.036 6.036 0 0 0 67.393 40.562 A 6.953 6.953 0 0 0 66.016 40.43 A 7.386 7.386 0 0 0 63.184 40.991 A 10.963 10.963 0 0 0 60.645 42.456 A 19.446 19.446 0 0 0 58.447 44.434 A 28.511 28.511 0 0 0 57.698 45.249 A 23.068 23.068 0 0 0 56.641 46.533 Q 56.348 46.875 56.348 47.461 A 2.271 2.271 0 0 0 56.502 48.277 A 2.969 2.969 0 0 0 56.836 48.901 A 10.964 10.964 0 0 0 56.955 49.071 Q 57.355 49.628 57.568 49.756 A 164.008 164.008 0 0 1 62.085 52.71 A 30.74 30.74 0 0 1 62.936 53.308 A 26.922 26.922 0 0 1 66.138 56.03 A 18.319 18.319 0 0 1 66.248 56.142 A 16.41 16.41 0 0 1 69.043 59.912 A 9.578 9.578 0 0 1 70.166 64.502 A 5.314 5.314 0 0 1 70.069 65.541 A 3.83 3.83 0 0 1 69.531 66.895 A 4.708 4.708 0 0 1 69.015 67.552 A 5.274 5.274 0 0 1 67.798 68.506 A 7.44 7.44 0 0 1 66.752 69.004 A 9.282 9.282 0 0 1 65.259 69.434 A 13.961 13.961 0 0 1 64.988 69.486 A 15.161 15.161 0 0 1 62.256 69.727 A 12.695 12.695 0 0 1 61.686 69.714 A 14.049 14.049 0 0 1 59.155 69.36 Q 57.568 68.994 56.152 68.335 A 13.629 13.629 0 0 1 56.064 68.294 A 12.302 12.302 0 0 1 53.589 66.748 A 8.066 8.066 0 0 1 53.109 66.329 A 6.731 6.731 0 0 1 51.807 64.649 A 2.15 2.15 0 0 0 51.704 64.466 A 1.561 1.561 0 0 0 50.806 63.77 Q 50.466 63.669 50.158 63.62 A 3.508 3.508 0 0 0 49.609 63.574 A 2.557 2.557 0 0 0 48.278 63.949 A 3.549 3.549 0 0 0 47.559 64.526 Q 46.631 65.479 46.631 66.797 A 1.271 1.271 0 0 0 46.631 66.82 Q 46.635 67.059 46.729 67.432 A 13.034 13.034 0 0 0 47.098 68.731 A 10.596 10.596 0 0 0 48.73 71.802 A 11.967 11.967 0 0 0 52.124 74.805 A 14.431 14.431 0 0 0 52.768 75.165 A 15.668 15.668 0 0 0 56.494 76.538 Q 58.887 77.1 61.426 77.1 A 27.97 27.97 0 0 0 68.091 76.294 Q 71.387 75.488 73.95 73.95 Q 76.514 72.412 78.101 70.191 A 8.403 8.403 0 0 0 79.688 65.186 A 11.69 11.69 0 0 0 79.567 63.524 A 13.671 13.671 0 0 0 78.833 60.693 A 16.675 16.675 0 0 0 78.082 58.983 A 19.88 19.88 0 0 0 76.343 56.177 Q 74.707 53.955 72.363 51.953 A 26.114 26.114 0 0 0 71.152 50.98 Z" id="1" vector-effect="non-scaling-stroke"/>
		<path d="M 89.111 46.24 L 105.225 14.551 Q 105.518 13.916 106.128 13.33 A 7.5 7.5 0 0 1 107.327 12.398 A 8.443 8.443 0 0 1 107.52 12.28 Q 108.301 11.817 109.18 11.548 Q 110.059 11.279 110.938 11.279 A 9.046 9.046 0 0 1 111.929 11.33 Q 112.966 11.445 113.574 11.821 A 1.997 1.997 0 0 1 113.916 12.085 Q 114.746 12.891 114.746 14.063 Q 114.746 15.137 114.209 16.333 A 15.405 15.405 0 0 1 113.115 18.361 A 14.119 14.119 0 0 1 112.988 18.555 A 194.005 194.005 0 0 0 108.862 25.952 A 1587.901 1587.901 0 0 0 104.907 33.472 Q 102.93 37.256 100.928 40.991 Q 98.926 44.727 96.729 48.389 A 160.799 160.799 0 0 1 98.138 47.046 A 185.693 185.693 0 0 1 99.634 45.654 A 25.061 25.061 0 0 1 102.979 43.067 Q 104.785 41.895 106.934 41.138 A 13.237 13.237 0 0 1 109.887 40.479 A 16.678 16.678 0 0 1 111.719 40.381 A 15.009 15.009 0 0 1 114.139 40.571 A 13.447 13.447 0 0 1 114.697 40.674 A 8.472 8.472 0 0 1 116.182 41.119 A 6.896 6.896 0 0 1 117.188 41.626 Q 118.262 42.285 118.896 43.433 Q 119.494 44.513 119.529 46.048 A 8.452 8.452 0 0 1 119.531 46.24 A 12.77 12.77 0 0 1 119.299 48.721 A 10.676 10.676 0 0 1 118.872 50.269 A 17.962 17.962 0 0 1 117.188 53.735 A 30.369 30.369 0 0 1 114.941 56.86 Q 113.721 58.35 112.622 59.888 A 22.088 22.088 0 0 0 110.718 63.086 A 10.558 10.558 0 0 0 109.744 66.456 A 11.975 11.975 0 0 0 109.717 66.699 A 0.803 0.803 0 0 1 109.692 66.895 A 0.803 0.803 0 0 0 109.668 67.09 A 2.202 2.202 0 0 0 109.707 67.52 Q 109.753 67.754 109.857 67.926 A 0.896 0.896 0 0 0 110.327 68.311 Q 110.986 68.555 112.012 68.555 A 7.788 7.788 0 0 0 113.534 68.397 A 10.463 10.463 0 0 0 114.844 68.042 A 17.883 17.883 0 0 0 117.128 67.081 A 20.744 20.744 0 0 0 117.896 66.675 A 34.995 34.995 0 0 0 120.587 65.011 A 38.59 38.59 0 0 0 120.972 64.746 A 52.827 52.827 0 0 0 123.901 62.549 A 70.316 70.316 0 0 0 125.555 61.174 A 57.972 57.972 0 0 0 126.465 60.376 A 150.494 150.494 0 0 0 127.296 59.627 Q 127.622 59.33 127.915 59.06 A 79.78 79.78 0 0 0 128.467 58.545 A 3.385 3.385 0 0 1 129.035 58.133 A 2.879 2.879 0 0 1 129.395 57.959 A 2.89 2.89 0 0 1 129.863 57.814 A 2.194 2.194 0 0 1 130.322 57.764 A 1.943 1.943 0 0 1 131.754 58.363 A 2.446 2.446 0 0 1 131.812 58.423 Q 132.408 59.067 132.422 60.153 A 4.074 4.074 0 0 1 132.422 60.205 A 3.62 3.62 0 0 1 132.305 61.087 Q 132.134 61.766 131.714 62.549 A 6.248 6.248 0 0 1 130.973 63.62 Q 130.562 64.106 130.015 64.592 A 13.448 13.448 0 0 1 129.297 65.186 A 117.65 117.65 0 0 1 123.828 69.678 A 54.08 54.08 0 0 1 118.931 73.057 A 48.916 48.916 0 0 1 118.213 73.486 A 33.412 33.412 0 0 1 114.33 75.446 A 28.866 28.866 0 0 1 112.573 76.123 A 17.59 17.59 0 0 1 108.941 76.984 A 15.22 15.22 0 0 1 107.08 77.1 A 12.313 12.313 0 0 1 104.771 76.896 Q 102.861 76.531 101.514 75.513 Q 99.414 73.926 99.414 70.508 Q 99.414 68.018 100.269 65.796 Q 101.123 63.574 102.368 61.499 Q 103.613 59.424 105.029 57.495 A 44.047 44.047 0 0 0 106.815 54.878 A 37.353 37.353 0 0 0 107.52 53.711 A 11.717 11.717 0 0 0 107.98 53.009 Q 108.178 52.681 108.328 52.375 A 6.553 6.553 0 0 0 108.423 52.173 A 3.675 3.675 0 0 0 108.737 50.789 A 4.255 4.255 0 0 0 108.74 50.635 A 2.245 2.245 0 0 0 108.681 50.104 A 1.605 1.605 0 0 0 108.35 49.439 Q 108.007 49.032 107.328 48.982 A 2.693 2.693 0 0 0 107.129 48.975 A 10.422 10.422 0 0 0 101.807 50.391 Q 99.365 51.807 97.314 54.004 A 38.671 38.671 0 0 0 93.506 58.814 A 229.821 229.821 0 0 0 91.809 61.371 A 195.969 195.969 0 0 0 90.234 63.818 A 25.444 25.444 0 0 0 89.545 64.972 A 34.543 34.543 0 0 0 88.843 66.284 A 513.151 513.151 0 0 1 87.402 69.095 A 552.69 552.69 0 0 1 87.378 69.141 Q 86.621 70.606 85.791 72.046 A 21.916 21.916 0 0 1 84.779 73.645 A 17.684 17.684 0 0 1 84.058 74.61 Q 83.154 75.733 82.153 76.416 Q 81.152 77.1 80.078 77.1 Q 78.528 77.1 77.62 76.276 A 2.92 2.92 0 0 1 77.441 76.099 A 3.452 3.452 0 0 1 76.533 74.011 A 4.602 4.602 0 0 1 76.514 73.584 A 7.272 7.272 0 0 1 76.666 72.133 A 9.184 9.184 0 0 1 76.904 71.216 Q 77.167 70.379 77.65 69.289 A 34.795 34.795 0 0 1 78.174 68.164 Q 79.346 65.674 80.859 62.622 A 525.062 525.062 0 0 1 83.911 56.568 A 1137.076 1137.076 0 0 0 85.406 53.638 A 970.392 970.392 0 0 0 86.816 50.855 A 524.668 524.668 0 0 0 87.78 48.935 Q 88.531 47.431 89.111 46.24 Z" id="2" vector-effect="non-scaling-stroke"/>
		<path d="M 179.834 61.817 A 63.723 63.723 0 0 0 179.358 62.271 Q 178.589 63.013 177.49 64.111 Q 176.025 65.576 174.146 67.285 Q 172.266 68.994 170.142 70.728 A 45.858 45.858 0 0 1 165.796 73.877 A 31.37 31.37 0 0 1 163.047 75.447 A 26.112 26.112 0 0 1 161.426 76.196 A 12.47 12.47 0 0 1 159.497 76.837 A 9.121 9.121 0 0 1 157.373 77.1 A 6.684 6.684 0 0 1 155.971 76.96 A 4.969 4.969 0 0 1 154.443 76.367 Q 153.223 75.635 152.417 74.463 A 8.261 8.261 0 0 1 151.353 72.26 A 9.547 9.547 0 0 1 151.221 71.802 Q 150.83 70.313 150.83 68.75 A 13.976 13.976 0 0 1 150.977 66.724 A 8.749 8.749 0 0 1 151.363 65.122 A 7.949 7.949 0 0 1 151.465 64.844 A 56.34 56.34 0 0 1 149.411 67.455 A 68.52 68.52 0 0 1 148.022 69.068 A 33.952 33.952 0 0 1 143.872 73.023 A 23.824 23.824 0 0 1 139.835 75.655 A 21.941 21.941 0 0 1 139.233 75.952 A 11.695 11.695 0 0 1 135.721 77.009 A 10.754 10.754 0 0 1 134.326 77.1 A 7.694 7.694 0 0 1 133.226 77.015 Q 132.666 76.934 132.042 76.775 A 15.242 15.242 0 0 1 131.372 76.587 A 9.725 9.725 0 0 1 128.657 75.257 A 11.339 11.339 0 0 1 128.174 74.902 A 9.355 9.355 0 0 1 126.107 72.654 A 11.236 11.236 0 0 1 125.635 71.875 Q 124.669 70.128 124.613 67.646 A 13.691 13.691 0 0 1 124.609 67.334 A 16.29 16.29 0 0 1 124.695 65.723 Q 124.783 64.838 124.963 63.836 A 33.768 33.768 0 0 1 125.22 62.549 Q 125.83 59.766 127.075 56.763 A 34.942 34.942 0 0 1 129.663 51.748 A 39.428 39.428 0 0 1 130.249 50.83 A 26.003 26.003 0 0 1 134.814 45.581 A 22.284 22.284 0 0 1 140.82 41.821 A 17.922 17.922 0 0 1 146.006 40.501 A 22.118 22.118 0 0 1 148.34 40.381 A 14.595 14.595 0 0 1 150.117 40.484 Q 151.193 40.616 152.1 40.918 A 19.751 19.751 0 0 1 153.394 41.398 Q 154.193 41.728 154.834 42.09 A 14.243 14.243 0 0 1 156.441 43.233 A 12.271 12.271 0 0 1 157.08 43.799 A 27.666 27.666 0 0 1 158.789 42.969 Q 159.521 42.627 160.327 42.359 A 6.437 6.437 0 0 1 160.878 42.2 Q 161.343 42.09 161.719 42.09 A 5.492 5.492 0 0 1 163.064 42.246 A 3.997 3.997 0 0 1 164.746 43.115 Q 165.694 43.945 165.875 44.903 A 2.465 2.465 0 0 1 165.918 45.361 A 3.886 3.886 0 0 1 165.913 45.561 Q 165.904 45.743 165.876 45.869 A 1.048 1.048 0 0 1 165.869 45.899 Q 165.705 46.522 165.42 47.366 A 43.631 43.631 0 0 1 165.112 48.242 A 794.257 794.257 0 0 1 164.569 49.738 A 1077.17 1077.17 0 0 1 163.965 51.392 A 271.025 271.025 0 0 0 162.999 54.074 A 303.514 303.514 0 0 0 162.671 55.005 A 80.532 80.532 0 0 0 161.508 58.579 A 74.121 74.121 0 0 0 161.475 58.692 A 50.158 50.158 0 0 0 160.906 60.759 A 40.055 40.055 0 0 0 160.596 62.085 A 18.48 18.48 0 0 0 160.387 63.21 Q 160.306 63.748 160.274 64.219 A 8.567 8.567 0 0 0 160.254 64.795 A 7.234 7.234 0 0 0 160.321 65.812 Q 160.396 66.338 160.554 66.776 A 3.701 3.701 0 0 0 160.742 67.212 A 1.708 1.708 0 0 0 161.312 67.871 Q 161.635 68.086 162.072 68.143 A 2.545 2.545 0 0 0 162.402 68.164 A 2.879 2.879 0 0 0 162.989 68.099 Q 163.282 68.038 163.608 67.919 A 6.698 6.698 0 0 0 164.136 67.7 A 13.496 13.496 0 0 0 165.112 67.196 Q 165.542 66.952 166 66.657 A 22.398 22.398 0 0 0 166.309 66.455 Q 167.48 65.674 168.726 64.673 Q 169.971 63.672 171.143 62.647 A 109.727 109.727 0 0 0 173.962 60.034 A 143.522 143.522 0 0 0 176.953 57.08 A 3.55 3.55 0 0 1 177.461 56.732 Q 177.766 56.562 178.063 56.493 A 1.778 1.778 0 0 1 178.467 56.445 A 1.803 1.803 0 0 1 179.788 57.015 A 2.817 2.817 0 0 1 180.103 57.398 A 3.647 3.647 0 0 1 180.762 59.522 A 3.317 3.317 0 0 1 180.522 60.797 A 3.109 3.109 0 0 1 179.834 61.817 Z M 145.996 49.219 A 9.093 9.093 0 0 0 141.822 50.249 A 10.724 10.724 0 0 0 141.553 50.391 A 13.78 13.78 0 0 0 137.744 53.467 A 15.373 15.373 0 0 0 135.107 57.739 A 12.673 12.673 0 0 0 134.178 61.455 A 11.725 11.725 0 0 0 134.131 62.5 A 17.165 17.165 0 0 0 134.211 64.135 A 19.356 19.356 0 0 0 134.253 64.526 A 5.906 5.906 0 0 0 134.634 66.055 A 5.395 5.395 0 0 0 134.814 66.455 A 4.001 4.001 0 0 0 136.06 67.92 Q 136.735 68.412 137.806 68.491 A 5.779 5.779 0 0 0 138.232 68.506 A 3.037 3.037 0 0 0 139.09 68.372 Q 139.846 68.149 140.745 67.555 A 6.246 6.246 0 0 0 140.747 67.554 Q 142.188 66.602 143.726 65.112 A 38.452 38.452 0 0 0 146.269 62.391 A 43.08 43.08 0 0 0 146.729 61.841 A 53.057 53.057 0 0 0 148.604 59.425 A 45.141 45.141 0 0 0 149.365 58.35 A 43.803 43.803 0 0 0 150.182 57.116 Q 150.615 56.437 150.967 55.821 A 23.406 23.406 0 0 0 151.27 55.274 Q 151.989 53.93 152.002 53.294 A 1.135 1.135 0 0 0 152.002 53.272 A 2.539 2.539 0 0 0 151.425 51.658 A 3.21 3.21 0 0 0 151.367 51.587 A 5.703 5.703 0 0 0 150.087 50.466 A 6.616 6.616 0 0 0 149.805 50.293 Q 148.877 49.756 147.827 49.487 A 10.2 10.2 0 0 0 147.078 49.324 Q 146.484 49.219 145.996 49.219 Z" id="3" vector-effect="non-scaling-stroke"/>
		<path d="M 181.006 46.24 L 197.119 14.551 Q 197.412 13.916 198.022 13.33 A 7.5 7.5 0 0 1 199.221 12.398 A 8.443 8.443 0 0 1 199.414 12.28 Q 200.195 11.817 201.074 11.548 Q 201.953 11.279 202.832 11.279 A 9.046 9.046 0 0 1 203.824 11.33 Q 204.86 11.445 205.469 11.821 A 1.997 1.997 0 0 1 205.811 12.085 Q 206.641 12.891 206.641 14.063 Q 206.641 15.137 206.104 16.333 A 15.405 15.405 0 0 1 205.01 18.361 A 14.119 14.119 0 0 1 204.883 18.555 A 194.005 194.005 0 0 0 200.757 25.952 A 1587.901 1587.901 0 0 0 196.802 33.472 Q 194.824 37.256 192.822 40.991 Q 190.82 44.727 188.623 48.389 A 160.799 160.799 0 0 1 190.033 47.046 A 185.693 185.693 0 0 1 191.528 45.654 A 25.061 25.061 0 0 1 194.873 43.067 Q 196.68 41.895 198.828 41.138 A 13.237 13.237 0 0 1 201.781 40.479 A 16.678 16.678 0 0 1 203.613 40.381 A 15.009 15.009 0 0 1 206.033 40.571 A 13.447 13.447 0 0 1 206.592 40.674 A 8.472 8.472 0 0 1 208.077 41.119 A 6.896 6.896 0 0 1 209.082 41.626 Q 210.156 42.285 210.791 43.433 Q 211.389 44.513 211.424 46.048 A 8.452 8.452 0 0 1 211.426 46.24 A 12.77 12.77 0 0 1 211.193 48.721 A 10.676 10.676 0 0 1 210.767 50.269 A 17.962 17.962 0 0 1 209.082 53.735 A 30.369 30.369 0 0 1 206.836 56.86 Q 205.615 58.35 204.517 59.888 A 22.088 22.088 0 0 0 202.612 63.086 A 10.558 10.558 0 0 0 201.638 66.456 A 11.975 11.975 0 0 0 201.611 66.699 A 0.803 0.803 0 0 1 201.587 66.895 A 0.803 0.803 0 0 0 201.563 67.09 A 2.202 2.202 0 0 0 201.601 67.52 Q 201.648 67.754 201.751 67.926 A 0.896 0.896 0 0 0 202.222 68.311 Q 202.881 68.555 203.906 68.555 A 7.788 7.788 0 0 0 205.429 68.397 A 10.463 10.463 0 0 0 206.738 68.042 A 17.883 17.883 0 0 0 209.023 67.081 A 20.744 20.744 0 0 0 209.79 66.675 A 34.995 34.995 0 0 0 212.482 65.011 A 38.59 38.59 0 0 0 212.866 64.746 A 52.827 52.827 0 0 0 215.796 62.549 A 70.316 70.316 0 0 0 217.45 61.174 A 57.972 57.972 0 0 0 218.359 60.376 A 150.494 150.494 0 0 0 219.19 59.627 Q 219.516 59.33 219.809 59.06 A 79.78 79.78 0 0 0 220.361 58.545 A 3.385 3.385 0 0 1 220.93 58.133 A 2.879 2.879 0 0 1 221.289 57.959 A 2.89 2.89 0 0 1 221.758 57.814 A 2.194 2.194 0 0 1 222.217 57.764 A 1.943 1.943 0 0 1 223.648 58.363 A 2.446 2.446 0 0 1 223.706 58.423 Q 224.302 59.067 224.316 60.153 A 4.074 4.074 0 0 1 224.316 60.205 A 3.62 3.62 0 0 1 224.2 61.087 Q 224.029 61.766 223.608 62.549 A 6.248 6.248 0 0 1 222.868 63.62 Q 222.457 64.106 221.91 64.592 A 13.448 13.448 0 0 1 221.191 65.186 A 117.65 117.65 0 0 1 215.723 69.678 A 54.08 54.08 0 0 1 210.826 73.057 A 48.916 48.916 0 0 1 210.107 73.486 A 33.412 33.412 0 0 1 206.225 75.446 A 28.866 28.866 0 0 1 204.468 76.123 A 17.59 17.59 0 0 1 200.835 76.984 A 15.22 15.22 0 0 1 198.975 77.1 A 12.313 12.313 0 0 1 196.665 76.896 Q 194.755 76.531 193.408 75.513 Q 191.309 73.926 191.309 70.508 Q 191.309 68.018 192.163 65.796 Q 193.018 63.574 194.263 61.499 Q 195.508 59.424 196.924 57.495 A 44.047 44.047 0 0 0 198.709 54.878 A 37.353 37.353 0 0 0 199.414 53.711 A 11.717 11.717 0 0 0 199.875 53.009 Q 200.073 52.681 200.223 52.375 A 6.553 6.553 0 0 0 200.317 52.173 A 3.675 3.675 0 0 0 200.632 50.789 A 4.255 4.255 0 0 0 200.635 50.635 A 2.245 2.245 0 0 0 200.575 50.104 A 1.605 1.605 0 0 0 200.244 49.439 Q 199.902 49.032 199.223 48.982 A 2.693 2.693 0 0 0 199.023 48.975 A 10.422 10.422 0 0 0 193.701 50.391 Q 191.26 51.807 189.209 54.004 A 38.671 38.671 0 0 0 185.4 58.814 A 229.821 229.821 0 0 0 183.704 61.371 A 195.969 195.969 0 0 0 182.129 63.818 A 25.444 25.444 0 0 0 181.439 64.972 A 34.543 34.543 0 0 0 180.737 66.284 A 513.151 513.151 0 0 1 179.296 69.095 A 552.69 552.69 0 0 1 179.272 69.141 Q 178.516 70.606 177.686 72.046 A 21.916 21.916 0 0 1 176.674 73.645 A 17.684 17.684 0 0 1 175.952 74.61 Q 175.049 75.733 174.048 76.416 Q 173.047 77.1 171.973 77.1 Q 170.422 77.1 169.515 76.276 A 2.92 2.92 0 0 1 169.336 76.099 A 3.452 3.452 0 0 1 168.428 74.011 A 4.602 4.602 0 0 1 168.408 73.584 A 7.272 7.272 0 0 1 168.561 72.133 A 9.184 9.184 0 0 1 168.799 71.216 Q 169.061 70.379 169.544 69.289 A 34.795 34.795 0 0 1 170.068 68.164 Q 171.24 65.674 172.754 62.622 A 525.062 525.062 0 0 1 175.806 56.568 A 1137.076 1137.076 0 0 0 177.301 53.638 A 970.392 970.392 0 0 0 178.711 50.855 A 524.668 524.668 0 0 0 179.675 48.935 Q 180.426 47.431 181.006 46.24 Z" id="4" vector-effect="non-scaling-stroke"/>
		<path d="M 270.117 57.568 L 270.605 64.209 A 38.861 38.861 0 0 1 267.481 67.361 A 46.852 46.852 0 0 1 265.601 68.97 A 49.918 49.918 0 0 1 259.717 73.096 Q 256.689 74.902 253.76 76.001 A 19.851 19.851 0 0 1 251.497 76.707 Q 250.34 76.989 249.291 77.069 A 10.67 10.67 0 0 1 248.486 77.1 A 6.793 6.793 0 0 1 246.789 76.899 A 4.947 4.947 0 0 1 244.678 75.781 Q 243.213 74.463 243.213 71.289 A 15.877 15.877 0 0 1 243.352 69.264 Q 243.483 68.248 243.737 67.117 A 30.703 30.703 0 0 1 243.994 66.065 A 24.212 24.212 0 0 1 242.365 68.222 A 31.539 31.539 0 0 1 240.82 69.922 A 25.827 25.827 0 0 1 237.077 73.078 A 28.97 28.97 0 0 1 236.475 73.486 A 22.386 22.386 0 0 1 232.121 75.702 A 25.809 25.809 0 0 1 231.006 76.099 A 19.909 19.909 0 0 1 226.377 77.021 A 23.872 23.872 0 0 1 224.414 77.1 A 13.828 13.828 0 0 1 221.337 76.763 A 12.975 12.975 0 0 1 221.313 76.758 A 7.305 7.305 0 0 1 219.517 76.099 A 6.464 6.464 0 0 1 218.701 75.586 A 5.762 5.762 0 0 1 217.215 73.946 A 7.033 7.033 0 0 1 216.895 73.364 A 6.158 6.158 0 0 1 216.415 71.958 Q 216.211 71.021 216.211 69.873 Q 216.211 69.831 216.36 68.729 A 531.255 531.255 0 0 1 216.406 68.384 Q 216.553 67.298 217.186 65.268 A 62.291 62.291 0 0 1 217.651 63.843 A 57.072 57.072 0 0 1 218.42 61.726 Q 219.324 59.369 220.7 56.257 A 187.271 187.271 0 0 1 220.898 55.811 Q 222.392 52.459 224.72 48.137 A 208.774 208.774 0 0 1 227.1 43.848 A 9.393 9.393 0 0 1 227.895 42.627 Q 228.37 42.016 228.899 41.587 A 4.918 4.918 0 0 1 229.468 41.187 Q 230.811 40.381 232.373 40.381 A 6.004 6.004 0 0 1 233.426 40.477 A 6.982 6.982 0 0 1 233.789 40.552 A 4.987 4.987 0 0 1 235.156 41.089 A 3.221 3.221 0 0 1 235.964 41.74 A 2.983 2.983 0 0 1 236.182 42.017 Q 236.572 42.578 236.572 43.311 A 2.918 2.918 0 0 1 236.43 44.225 A 2.789 2.789 0 0 1 236.426 44.238 A 5.301 5.301 0 0 1 236.222 44.8 Q 235.933 45.483 235.376 46.411 A 202.554 202.554 0 0 1 234.62 47.661 Q 234.23 48.3 233.793 49.008 A 351.727 351.727 0 0 1 233.496 49.487 A 245.12 245.12 0 0 0 232.391 51.288 A 299.732 299.732 0 0 0 231.226 53.223 A 50.439 50.439 0 0 0 229.004 57.373 A 37.123 37.123 0 0 0 227.246 61.743 A 17.128 17.128 0 0 0 226.558 64.607 A 14.654 14.654 0 0 0 226.416 66.065 A 2.844 2.844 0 0 0 226.904 67.676 A 1.566 1.566 0 0 0 227.847 68.329 Q 228.124 68.402 228.458 68.408 A 3.371 3.371 0 0 0 228.516 68.408 A 11.38 11.38 0 0 0 234.3 66.811 A 13.592 13.592 0 0 0 234.57 66.651 Q 237.451 64.893 239.893 62.28 A 42.196 42.196 0 0 0 244.312 56.665 Q 246.011 54.085 247.224 51.883 A 49.029 49.029 0 0 0 247.607 51.172 A 25.216 25.216 0 0 0 249.063 48.08 A 27.972 27.972 0 0 0 249.243 47.608 A 34.25 34.25 0 0 1 250.176 45.342 A 28.858 28.858 0 0 1 250.781 44.092 A 12.241 12.241 0 0 1 251.672 42.615 A 9.36 9.36 0 0 1 252.686 41.406 A 3.624 3.624 0 0 1 255.268 40.333 A 4.758 4.758 0 0 1 255.371 40.332 A 4.437 4.437 0 0 1 256.586 40.49 A 3.302 3.302 0 0 1 258.154 41.455 Q 259.18 42.578 259.18 44.141 Q 259.18 45.02 258.521 46.558 A 48.667 48.667 0 0 1 257.878 47.988 Q 257.537 48.718 257.135 49.526 A 87.541 87.541 0 0 1 256.86 50.073 Q 255.859 52.051 254.688 54.297 Q 253.516 56.543 252.515 58.862 A 42.013 42.013 0 0 0 251.205 62.287 A 36.947 36.947 0 0 0 250.854 63.403 A 16.981 16.981 0 0 0 250.365 65.514 A 12.606 12.606 0 0 0 250.195 67.529 A 2.031 2.031 0 0 0 250.329 68.296 Q 250.685 69.176 251.997 69.275 A 4.625 4.625 0 0 0 252.344 69.287 A 6.71 6.71 0 0 0 253.471 69.183 Q 254.62 68.987 256.081 68.417 A 20.869 20.869 0 0 0 256.104 68.408 A 23.447 23.447 0 0 0 258.552 67.275 A 31.47 31.47 0 0 0 260.815 65.943 A 40.639 40.639 0 0 0 264.206 63.495 A 47.936 47.936 0 0 0 265.747 62.207 A 31.655 31.655 0 0 0 270.117 57.568 Z" id="5" vector-effect="non-scaling-stroke"/>
		<path d="M 270.361 46.24 L 285.156 14.746 Q 285.997 12.925 287.396 12.131 A 4.425 4.425 0 0 1 287.524 12.061 A 6.904 6.904 0 0 1 289.255 11.418 A 5.927 5.927 0 0 1 290.527 11.279 Q 292.041 11.279 293.286 12.11 A 2.683 2.683 0 0 1 294.43 13.82 A 4.401 4.401 0 0 1 294.531 14.795 A 4.215 4.215 0 0 1 294.393 15.844 A 5.662 5.662 0 0 1 294.116 16.651 A 18.112 18.112 0 0 1 293.646 17.664 A 24.279 24.279 0 0 1 293.066 18.75 A 236.769 236.769 0 0 0 292.086 20.616 Q 291.214 22.29 290.161 24.365 Q 288.477 27.686 286.548 31.592 A 779.16 779.16 0 0 0 283.6 37.63 A 868.135 868.135 0 0 0 282.593 39.722 A 5800.498 5800.498 0 0 1 278.638 47.949 A 913.4 913.4 0 0 0 276.77 51.849 A 769.65 769.65 0 0 0 275.024 55.542 A 1755.979 1755.979 0 0 0 273.826 58.1 Q 273.354 59.11 272.927 60.027 A 952.079 952.079 0 0 0 272.119 61.768 A 20.537 20.537 0 0 0 271.621 62.901 Q 271.342 63.589 271.069 64.38 A 10.857 10.857 0 0 0 270.74 65.527 Q 270.608 66.112 270.571 66.638 A 5.743 5.743 0 0 0 270.557 67.041 Q 270.557 67.774 270.85 68.213 A 0.871 0.871 0 0 0 271.251 68.532 Q 271.408 68.598 271.609 68.628 A 2.485 2.485 0 0 0 271.973 68.652 Q 272.998 68.652 274.536 68.042 A 23.668 23.668 0 0 0 276.135 67.334 Q 276.959 66.934 277.843 66.439 A 36.721 36.721 0 0 0 277.856 66.431 A 51.428 51.428 0 0 0 280.141 65.065 A 62.24 62.24 0 0 0 281.567 64.136 A 116.536 116.536 0 0 0 285.4 61.45 A 101.565 101.565 0 0 0 288.821 58.841 A 92.886 92.886 0 0 0 289.038 58.667 A 147.329 147.329 0 0 0 290.68 57.33 A 107.489 107.489 0 0 0 292.139 56.104 A 2.282 2.282 0 0 1 292.967 55.645 A 2.671 2.671 0 0 1 293.066 55.615 A 5.007 5.007 0 0 1 293.449 55.526 Q 293.636 55.49 293.802 55.477 A 2.378 2.378 0 0 1 293.994 55.469 A 2.281 2.281 0 0 1 294.835 55.619 A 2.084 2.084 0 0 1 295.605 56.152 A 2.322 2.322 0 0 1 296.178 57.3 A 3.338 3.338 0 0 1 296.24 57.959 A 3.697 3.697 0 0 1 296.109 58.903 Q 295.941 59.54 295.557 60.254 Q 294.873 61.524 293.164 62.744 Q 290.039 65.625 286.865 68.213 A 65.794 65.794 0 0 1 282.217 71.685 A 56.973 56.973 0 0 1 280.542 72.778 Q 277.393 74.756 274.292 75.928 A 18.422 18.422 0 0 1 270.694 76.903 A 15.353 15.353 0 0 1 268.262 77.1 Q 266.695 77.1 265.532 76.771 A 6.195 6.195 0 0 1 264.917 76.563 A 6.302 6.302 0 0 1 263.742 75.951 A 4.885 4.885 0 0 1 262.769 75.098 A 5.413 5.413 0 0 1 261.677 73.097 A 6.324 6.324 0 0 1 261.621 72.901 A 10.131 10.131 0 0 1 261.285 70.589 A 11.497 11.497 0 0 1 261.279 70.215 Q 261.279 67.822 261.987 65.308 A 32.756 32.756 0 0 1 262.977 62.327 A 27.344 27.344 0 0 1 263.672 60.693 A 535.322 535.322 0 0 1 267.139 53.125 A 8781.993 8781.993 0 0 1 268.823 49.524 A 6662.541 6662.541 0 0 1 270.361 46.24 Z" id="6" vector-effect="non-scaling-stroke"/>
		<path d="M 345.313 3.809 A 49636.517 49636.517 0 0 0 322.192 43.262 A 49636.517 49636.517 0 0 1 299.072 82.715 A 5.238 5.238 0 0 1 298.506 83.542 Q 298.111 84.009 297.643 84.296 A 3.076 3.076 0 0 1 297.412 84.424 A 4.527 4.527 0 0 1 295.361 84.912 A 4.786 4.786 0 0 1 292.773 84.18 A 3.01 3.01 0 0 1 292.155 83.679 A 1.999 1.999 0 0 1 291.602 82.276 A 2.96 2.96 0 0 1 291.611 82.048 Q 291.62 81.931 291.638 81.802 A 5.269 5.269 0 0 1 291.65 81.714 Q 291.691 81.452 291.797 81.274 A 0.825 0.825 0 0 1 291.846 81.201 A 60938.304 60938.304 0 0 0 314.648 41.675 A 60938.304 60938.304 0 0 1 337.451 2.149 A 4.633 4.633 0 0 1 338.24 1.165 A 3.852 3.852 0 0 1 339.185 0.513 A 4.998 4.998 0 0 1 341.406 0 A 6.317 6.317 0 0 1 342.562 0.099 Q 343.614 0.295 344.312 0.879 A 3.004 3.004 0 0 1 345.038 1.749 A 2.74 2.74 0 0 1 345.361 3.076 A 8.041 8.041 0 0 1 345.358 3.305 Q 345.351 3.547 345.329 3.711 A 1.652 1.652 0 0 1 345.313 3.809 Z" id="7" vector-effect="non-scaling-stroke"/>
		<path d="M 356.982 17.676 L 393.896 38.477 A 6.99 6.99 0 0 1 394.716 39.038 Q 395.218 39.441 395.557 39.893 A 3.338 3.338 0 0 1 395.919 40.491 Q 396.143 40.973 396.143 41.455 Q 396.143 42.627 395.02 43.799 A 7.256 7.256 0 0 1 394.097 44.599 Q 393.09 45.345 391.553 46.071 A 23.88 23.88 0 0 1 391.504 46.094 Q 378.955 51.318 366.553 56.494 Q 354.15 61.67 341.65 66.895 A 2.768 2.768 0 0 1 340.785 67.041 A 2.649 2.649 0 0 1 340.771 67.041 A 2.808 2.808 0 0 1 339.607 66.804 A 2.728 2.728 0 0 1 338.794 66.235 A 2.719 2.719 0 0 1 338.006 64.527 A 3.699 3.699 0 0 1 337.988 64.16 A 3.585 3.585 0 0 1 338.24 62.881 Q 338.586 61.974 339.404 60.986 Q 340.82 59.277 344.336 58.057 Q 354.15 54.102 363.818 50.171 Q 373.486 46.24 383.301 42.285 A 2940.443 2940.443 0 0 1 368.75 34.375 Q 361.523 30.42 354.248 26.465 A 4.969 4.969 0 0 1 353.405 25.897 A 3.514 3.514 0 0 1 352.563 24.878 A 4.308 4.308 0 0 1 352.051 22.803 A 5.805 5.805 0 0 1 352.277 21.22 A 6.677 6.677 0 0 1 352.368 20.923 A 6.643 6.643 0 0 1 352.983 19.579 A 5.981 5.981 0 0 1 353.223 19.214 A 4.617 4.617 0 0 1 354.181 18.21 A 4.272 4.272 0 0 1 354.492 17.993 Q 355.225 17.529 356.104 17.529 A 2.764 2.764 0 0 1 356.979 17.675 A 3.449 3.449 0 0 1 356.982 17.676 Z" id="8" vector-effect="non-scaling-stroke"/>
	</g>
</svg>